# xmcd
#
# Track frame offsets:
#	150
#	12781
#	26303
#	43304
#	48905
#	58677
#	72398
#	86686
#	102933
#	117880
#	122705
#	131270
#	146824
#	162875
#	174736
#	184044
#	197886
#	212419
#	217136
#	219313
#	222492
#	233819
#
# Disc length: 3361 seconds
#
# Revision: 1
# Processed by: cddbd v1.5.2PL0 Copyright (c) Steve Scherf et al.
# Submitted via: audiograbber 1.83.01
#
DISCID=490d1f16
DTITLE=Crystal Gayle - Live! An Evening With Crystal Gayle
DYEAR=2006
DGENRE=Country
TTITLE0=Everybody's Reaching Out For Someone
TTITLE1=Green Door
TTITLE2=Half The Way
TTITLE3=Wrong Road Again
TTITLE4=Somebody Loves You
TTITLE5=Why Have You Left The One You Left Me For
TTITLE6=Talking In Your Sleep
TTITLE7=You Don't Even Know My Name
TTITLE8=Old Songs - Jay Patten
TTITLE9=Coal Miner's Daughter Featuring Peggy Sue Wright
TTITLE10=Blue Moon Of Kentucky Featuring Peggy Sue Wright
TTITLE11=Ready For The Time To Get Better
TTITLE12=Midnight In The Desert
TTITLE13=More Money Featuring Peggy Sue Wright
TTITLE14=Don't Come Home A Drinking (With Lovin' On Your Mind) - Peggy Sue Wrig
TTITLE14=ht
TTITLE15=That's What I like About The South
TTITLE16=Don't It Make My Brown Eyes Blue
TTITLE17=I Saw The Light
TTITLE18=Somebody Touched Me
TTITLE19=I'll Fly Away
TTITLE20=Jesus On The Mainline
TTITLE21=When I Dream
EXTD=
EXTT0=
EXTT1=
EXTT2=
EXTT3=
EXTT4=
EXTT5=
EXTT6=
EXTT7=
EXTT8=
EXTT9=
EXTT10=
EXTT11=
EXTT12=
EXTT13=
EXTT14=
EXTT15=
EXTT16=
EXTT17=
EXTT18=
EXTT19=
EXTT20=
EXTT21=
PLAYORDER=
